<svg version="1.1" id="Layer_1" xmlns="http://www.w3.org/2000/svg" xmlns:xlink="http://www.w3.org/1999/xlink" x="0px" y="0px"
	 viewBox="0 0 600 600" style="enable-background:new 0 0 600 600;" xml:space="preserve">
<style type="text/css">
	.st0{fill:#FFA900;}
	.st1{fill:#000060;}
</style>
<g>
	<path class="st0" d="M410.5,523.1l-29.8-27.4c-15.2-14-39.8-7-45.3,12.9l-10.9,39c-7.6,27.2-46.2,26.8-53.4-0.4l-10.3-39.2
		c-5.2-20-29.7-27.4-45.1-13.7l-30.3,26.9c-21.1,18.7-53.4-2.4-44.6-29.2l12.6-38.5c6.4-19.6-10.2-39.1-30.6-35.9l-40,6.3
		c-27.9,4.4-43.6-30.9-21.8-48.7l31.4-25.6c16-13,12.6-38.4-6.3-46.7l-37.1-16.4c-25.8-11.4-20-49.6,8-52.7l40.3-4.6
		c20.5-2.3,31.3-25.5,19.9-42.7l-22.3-33.8c-15.5-23.5,10-52.5,35.3-40l36.3,17.9c18.5,9.1,40.1-4.5,39.9-25.1l-0.5-40.5
		c-0.4-28.2,36.8-38.8,51.3-14.6L278.1,85c10.6,17.7,36.2,17.9,47.1,0.4L346.7,51c14.9-23.9,51.9-12.7,51.1,15.5l-1.2,40.5
		c-0.6,20.6,20.8,34.6,39.4,25.8l36.6-17.3c25.5-12,50.5,17.4,34.6,40.6l-22.9,33.4c-11.7,17-1.2,40.4,19.2,43l40.2,5.3
		c28,3.7,33.1,41.9,7.1,52.9l-37.3,15.7c-19,8-22.9,33.3-7.1,46.6l31,26.1c21.5,18.2,5.2,53.2-22.6,48.3l-39.9-6.9
		c-20.3-3.5-37.2,15.6-31.2,35.4l11.9,38.7C463.9,521.5,431.3,542.1,410.5,523.1z"/>
	<g>
		<path class="st1" d="M375.5,222.3c-1.8,3-3.8,5.2-5.8,6.7s-4.7,2.2-7.9,2.2c-2.8,0-5.9-0.9-9.2-2.7c-3.3-1.8-7-3.8-11.1-6
			c-4.1-2.2-8.9-4.2-14.2-6c-5.3-1.8-11.3-2.7-18.1-2.7c-11.7,0-20.4,2.5-26.2,7.5c-5.7,5-8.6,11.7-8.6,20.3c0,5.4,1.7,9.9,5.2,13.5
			c3.5,3.6,8,6.7,13.6,9.2c5.6,2.6,12,5,19.2,7.1c7.2,2.2,14.6,4.6,22.1,7.2c7.5,2.7,14.9,5.8,22.1,9.3c7.2,3.6,13.6,8.1,19.2,13.7
			c5.6,5.5,10.1,12.3,13.6,20.3c3.5,8,5.2,17.5,5.2,28.8c0,12.5-2.2,24.1-6.5,35c-4.3,10.9-10.6,20.3-18.8,28.4
			c-8.2,8.1-18.3,14.4-30.3,19.1c-12,4.6-25.7,6.9-41,6.9c-8.4,0-16.9-0.9-25.6-2.6s-17.1-4.2-25.3-7.3c-8.1-3.1-15.8-6.9-22.9-11.2
			c-7.2-4.3-13.4-9.1-18.7-14.4l18.5-29.2c1.5-2.1,3.4-3.9,5.8-5.3c2.4-1.4,5-2.1,7.9-2.1c3.7,0,7.4,1.2,11.2,3.5
			c3.8,2.3,8,4.9,12.8,7.8c4.7,2.8,10.2,5.4,16.4,7.8c6.2,2.3,13.4,3.5,21.8,3.5c11.3,0,20.2-2.5,26.5-7.5s9.4-12.9,9.4-23.8
			c0-6.3-1.7-11.4-5.2-15.4c-3.5-3.9-8-7.2-13.6-9.8c-5.6-2.6-12-4.9-19.1-6.8c-7.2-2-14.5-4.2-22-6.6c-7.5-2.4-14.9-5.4-22-8.9
			c-7.2-3.5-13.5-8.1-19.1-13.9c-5.6-5.7-10.1-12.9-13.6-21.5c-3.5-8.6-5.2-19.1-5.2-31.7c0-10.1,2-20,6.1-29.6
			c4.1-9.6,10.1-18.2,17.9-25.7c7.9-7.5,17.6-13.5,29-18c11.5-4.5,24.6-6.8,39.4-6.8c8.3,0,16.3,0.6,24.1,1.9
			c7.8,1.3,15.3,3.2,22.3,5.7c7,2.5,13.6,5.6,19.7,9.1c6.1,3.5,11.6,7.5,16.4,11.9L375.5,222.3z"/>
	</g>
</g>
</svg>
