<svg
  version="1.1"
  id="Layer_1"
  xmlns="http://www.w3.org/2000/svg"
  xmlns:xlink="http://www.w3.org/1999/xlink"
  x="0px"
  y="0px"
  viewBox="0 0 600 600"
  style="enable-background: new 0 0 600 600"
  xml:space="preserve"
>
  <filter id='shadow' color-interpolation-filters="sRGB">
    <feDropShadow dx="2" dy="2" stdDeviation="0" flood-opacity="1" flood-color="red"/>
  </filter>

  <style type="text/css">
    .st0 {
      fill: #ffa900;

    }
    .st1 {
      fill: #000060;
    }
  </style>
  <g>
    <path
      class="st0"
      d="M410.5,523.1l-29.8-27.4c-15.2-14-39.8-7-45.3,12.9l-10.9,39c-7.6,27.2-46.2,26.8-53.4-0.4l-10.3-39.2
      c-5.2-20-29.7-27.4-45.1-13.7l-30.3,26.9c-21.1,18.7-53.4-2.4-44.6-29.2l12.6-38.5c6.4-19.6-10.2-39.1-30.6-35.9l-40,6.3
      c-27.9,4.4-43.6-30.9-21.8-48.7l31.4-25.6c16-13,12.6-38.4-6.3-46.7l-37.1-16.4c-25.8-11.4-20-49.6,8-52.7l40.3-4.6
      c20.5-2.3,31.3-25.5,19.9-42.7l-22.3-33.8c-15.5-23.5,10-52.5,35.3-40l36.3,17.9c18.5,9.1,40.1-4.5,39.9-25.1l-0.5-40.5
      c-0.4-28.2,36.8-38.8,51.3-14.6L278.1,85c10.6,17.7,36.2,17.9,47.1,0.4L346.7,51c14.9-23.9,51.9-12.7,51.1,15.5l-1.2,40.5
      c-0.6,20.6,20.8,34.6,39.4,25.8l36.6-17.3c25.5-12,50.5,17.4,34.6,40.6l-22.9,33.4c-11.7,17-1.2,40.4,19.2,43l40.2,5.3
      c28,3.7,33.1,41.9,7.1,52.9l-37.3,15.7c-19,8-22.9,33.3-7.1,46.6l31,26.1c21.5,18.2,5.2,53.2-22.6,48.3l-39.9-6.9
      c-20.3-3.5-37.2,15.6-31.2,35.4l11.9,38.7C463.9,521.5,431.3,542.1,410.5,523.1z"
    />
    <g>
      <path
        class="st1"
        d="M395.5,418.8h-49c-9.1,0-15.6-3.4-19.5-10.2l-38.7-67.7c-1.8-2.9-3.8-5-6.1-6.3c-2.2-1.3-5.4-2-9.6-2h-13.8
        v86.2h-54.1V185.7h75.8c16.9,0,31.2,1.7,43.1,5.2c11.9,3.5,21.6,8.3,29.1,14.5c7.5,6.2,13,13.5,16.4,21.9
        c3.4,8.4,5.1,17.6,5.1,27.5c0,7.6-1,14.7-3,21.4c-2,6.7-5,12.9-9,18.6c-3.9,5.7-8.8,10.8-14.6,15.3c-5.8,4.5-12.5,8.2-20.1,11
        c3.5,1.8,6.8,4.1,9.9,6.8c3.1,2.7,5.9,5.9,8.3,9.7L395.5,418.8z M280.7,295.3c7.4,0,13.6-0.9,18.8-2.8c5.2-1.9,9.4-4.5,12.7-7.8
        c3.3-3.3,5.7-7.2,7.2-11.6c1.5-4.4,2.2-9.2,2.2-14.3c0-10.2-3.3-18.2-10-24c-6.7-5.8-17-8.6-31-8.6h-21.8v69.1H280.7z"
      />
    </g>
  </g>
</svg>
