<?xml version="1.0" encoding="utf-8"?>
<svg version="1.1" id="sun-menu" xmlns="http://www.w3.org/2000/svg" xmlns:xlink="http://www.w3.org/1999/xlink" x="0px" y="0px" viewBox="0 0 1100 768" xml:space="preserve">
  <path id="sun-shape" d="M793.1,601.7l-29.8-27.4c-15.2-14-39.8-7-45.3,12.9l-10.9,39c-7.6,27.2-46.2,26.8-53.4-0.4
    l-10.3-39.2c-5.2-20-29.7-27.4-45.1-13.7l-30.3,26.9c-21.1,18.7-53.4-2.4-44.6-29.2L536,532c6.4-19.6-10.2-39.1-30.6-35.9l-40,6.3
    c-27.9,4.4-43.6-30.9-21.8-48.7l31.4-25.6c16-13,12.6-38.4-6.3-46.7l-37.1-16.4c-25.8-11.4-20-49.6,8-52.7l40.3-4.6
    c20.5-2.3,31.3-25.5,19.9-42.7l-22.3-33.8c-15.5-23.5,10-52.5,35.3-40l36.3,17.9c18.5,9.1,40.1-4.5,39.9-25.1l-0.5-40.5
    c-0.4-28.2,36.8-38.8,51.3-14.6l20.9,34.7c10.6,17.7,36.2,17.9,47.1,0.4l21.5-34.4c14.9-23.9,51.9-12.7,51.1,15.5l-1.2,40.5
    c-0.6,20.6,20.8,34.6,39.4,25.8l36.6-17.3c25.5-12,50.5,17.4,34.6,40.6l-22.9,33.4c-11.7,17-1.2,40.4,19.2,43l40.2,5.3
    c28,3.7,33.1,41.9,7.1,52.9L896.1,385c-19,8-22.9,33.3-7.1,46.6l31,26.1c21.5,18.2,5.2,53.2-22.6,48.3l-39.9-6.9
    c-20.3-3.5-37.2,15.6-31.2,35.4l11.9,38.7C846.5,600.2,813.9,620.8,793.1,601.7z"/>
  <path id="in-line-1" class="in-line-group" d="M793.3,304.3H572.2
    c-10.2,0-18.4-8.3-18.4-18.4v0c0-10.2,8.3-18.4,18.4-18.4h221.1c10.2,0,18.4,8.3,18.4,18.4v0C811.8,296.1,803.5,304.3,793.3,304.3z"
    />
  <path id="in-line-2" class="in-line-group" d="M793.3,494.3H572.2
    c-10.2,0-18.4-8.3-18.4-18.4v0c0-10.2,8.3-18.4,18.4-18.4h221.1c10.2,0,18.4,8.3,18.4,18.4v0C811.8,486.1,803.5,494.3,793.3,494.3z"
    />
  <path id="in-line-3" class="in-line-group" d="M793.3,399.3H572.2c-10.2,0-18.4-8.3-18.4-18.4v0c0-10.2,8.3-18.4,18.4-18.4h221.1
    c10.2,0,18.4,8.3,18.4,18.4v0C811.8,391.1,803.5,399.3,793.3,399.3z"/>
</svg>
