<svg version="1.1" id="Layer_1" xmlns="http://www.w3.org/2000/svg" xmlns:xlink="http://www.w3.org/1999/xlink" x="0px" y="0px"
	 viewBox="0 0 600 600" style="enable-background:new 0 0 600 600;" xml:space="preserve">
<style type="text/css">
	.st0{fill:#FFA900;}
	.st1{fill:#000060;}
</style>
<g>
	<path class="st0" d="M410.5,523.1l-29.8-27.4c-15.2-14-39.8-7-45.3,12.9l-10.9,39c-7.6,27.2-46.2,26.8-53.4-0.4l-10.3-39.2
		c-5.2-20-29.7-27.4-45.1-13.7l-30.3,26.9c-21.1,18.7-53.4-2.4-44.6-29.2l12.6-38.5c6.4-19.6-10.2-39.1-30.6-35.9l-40,6.3
		c-27.9,4.4-43.6-30.9-21.8-48.7l31.4-25.6c16-13,12.6-38.4-6.3-46.7l-37.1-16.4c-25.8-11.4-20-49.6,8-52.7l40.3-4.6
		c20.5-2.3,31.3-25.5,19.9-42.7l-22.3-33.8c-15.5-23.5,10-52.5,35.3-40l36.3,17.9c18.5,9.1,40.1-4.5,39.9-25.1l-0.5-40.5
		c-0.4-28.2,36.8-38.8,51.3-14.6L278.1,85c10.6,17.7,36.2,17.9,47.1,0.4L346.7,51c14.9-23.9,51.9-12.7,51.1,15.5l-1.2,40.5
		c-0.6,20.6,20.8,34.6,39.4,25.8l36.6-17.3c25.5-12,50.5,17.4,34.6,40.6l-22.9,33.4c-11.7,17-1.2,40.4,19.2,43l40.2,5.3
		c28,3.7,33.1,41.9,7.1,52.9l-37.3,15.7c-19,8-22.9,33.3-7.1,46.6l31,26.1c21.5,18.2,5.2,53.2-22.6,48.3l-39.9-6.9
		c-20.3-3.5-37.2,15.6-31.2,35.4l11.9,38.7C463.9,521.5,431.3,542.1,410.5,523.1z"/>
	<g>
		<path class="st1" d="M407.3,217.1h-75.9v220h-62.5v-220h-75.9v-49.6h214.2V217.1z"/>
	</g>
</g>
</svg>
