<?xml version="1.0" encoding="UTF-8"?>
<svg id="Layer_2" data-name="Layer 2" xmlns="http://www.w3.org/2000/svg" viewBox="0 0 535.23 530.94">
  <defs>
    <style>
      .cls-1 {
        fill: #000060;
      }

      .cls-2 {
        fill: #ffa900;
      }
    </style>
  </defs>
  <g id="stars">
    <g>
      <path class="cls-2" d="m377.97,486.26l-29.83-27.43c-15.19-13.97-39.76-6.97-45.32,12.9l-10.92,39.02c-7.6,27.16-46.21,26.83-53.35-.45l-10.26-39.2c-5.22-19.96-29.68-27.36-45.1-13.65l-30.28,26.93c-21.07,18.74-53.38-2.41-44.64-29.22l12.56-38.53c6.39-19.61-10.18-39.07-30.56-35.87l-40.03,6.28c-27.86,4.37-43.6-30.89-21.76-48.72l31.4-25.62c15.98-13.04,12.56-38.37-6.31-46.7l-37.07-16.36c-25.8-11.39-19.98-49.56,8.04-52.74l40.26-4.58c20.5-2.33,31.31-25.49,19.93-42.7l-22.34-33.81c-15.55-23.53,9.98-52.49,35.28-40.03l36.35,17.92c18.5,9.12,40.12-4.51,39.85-25.14l-.52-40.52c-.36-28.2,36.78-38.76,51.32-14.6l20.89,34.72c10.64,17.68,36.19,17.89,47.12.4l21.47-34.37c14.94-23.92,51.9-12.73,51.06,15.46l-1.2,40.5c-.61,20.62,20.77,34.62,39.43,25.81l36.64-17.3c25.5-12.04,50.54,17.35,34.6,40.61l-22.91,33.43c-11.66,17.02-1.24,40.35,19.21,43.03l40.18,5.25c27.96,3.66,33.14,41.92,7.15,52.87l-37.34,15.74c-19.01,8.01-22.86,33.27-7.1,46.58l30.96,26.14c21.55,18.19,5.21,53.18-22.57,48.34l-39.92-6.95c-20.32-3.54-37.22,15.63-31.16,35.35l11.91,38.73c8.29,26.95-24.37,47.56-45.12,28.47Z"/>
      <path class="cls-1" d="m342.91,185.45c-1.85,2.96-3.79,5.18-5.83,6.66s-4.66,2.22-7.86,2.22c-2.84,0-5.89-.89-9.16-2.68-3.27-1.79-6.97-3.79-11.1-6.01-4.13-2.22-8.85-4.22-14.15-6.01-5.3-1.79-11.35-2.68-18.13-2.68-11.72,0-20.44,2.5-26.18,7.49-5.74,5-8.6,11.75-8.6,20.26,0,5.43,1.73,9.93,5.18,13.5,3.45,3.58,7.98,6.66,13.6,9.25,5.61,2.59,12.03,4.97,19.24,7.12,7.21,2.16,14.58,4.56,22.11,7.21,7.52,2.65,14.89,5.77,22.11,9.34,7.21,3.58,13.63,8.14,19.24,13.69,5.61,5.55,10.14,12.3,13.6,20.26,3.45,7.96,5.18,17.55,5.18,28.77,0,12.46-2.16,24.11-6.47,34.96-4.32,10.85-10.58,20.32-18.78,28.4-8.2,8.08-18.31,14.43-30.34,19.06-12.02,4.62-25.69,6.94-40.98,6.94-8.39,0-16.93-.86-25.62-2.59s-17.11-4.16-25.25-7.31c-8.14-3.14-15.79-6.87-22.94-11.19-7.15-4.32-13.38-9.13-18.69-14.43l18.5-29.23c1.48-2.1,3.42-3.85,5.83-5.27,2.4-1.42,5.02-2.13,7.86-2.13,3.7,0,7.43,1.17,11.19,3.51,3.76,2.34,8.02,4.93,12.76,7.77,4.75,2.84,10.2,5.43,16.37,7.77,6.17,2.34,13.44,3.51,21.83,3.51,11.35,0,20.16-2.5,26.45-7.49s9.43-12.92,9.43-23.77c0-6.29-1.73-11.41-5.18-15.36-3.45-3.95-7.99-7.21-13.6-9.8-5.61-2.59-12-4.87-19.15-6.85-7.15-1.97-14.49-4.16-22.01-6.57-7.52-2.41-14.86-5.37-22.02-8.88-7.15-3.51-13.54-8.14-19.15-13.88-5.61-5.73-10.15-12.89-13.6-21.46-3.45-8.57-5.18-19.15-5.18-31.73,0-10.11,2.04-19.98,6.1-29.6,4.07-9.62,10.05-18.19,17.95-25.71,7.89-7.52,17.58-13.53,29.04-18.04,11.47-4.5,24.61-6.75,39.41-6.75,8.26,0,16.31.65,24.14,1.94,7.83,1.29,15.26,3.21,22.29,5.73,7.03,2.53,13.6,5.55,19.7,9.06,6.1,3.52,11.56,7.49,16.37,11.93l-15.54,29.04Z"/>
    </g>
  </g>
</svg>