<?xml version="1.0" encoding="UTF-8"?>
<svg id="Layer_2" data-name="Layer 2" xmlns="http://www.w3.org/2000/svg" viewBox="0 0 535.23 530.94">
  <defs>
    <style>
      .cls-1 {
        fill: #000060;
      }

      .cls-2 {
        fill: #ffa900;
      }
    </style>
  </defs>
  <g id="stars">
    <g>
      <path class="cls-2" d="m377.97,486.26l-29.83-27.43c-15.19-13.97-39.76-6.97-45.32,12.9l-10.92,39.02c-7.6,27.16-46.21,26.83-53.35-.45l-10.26-39.2c-5.22-19.96-29.68-27.36-45.1-13.65l-30.28,26.93c-21.07,18.74-53.38-2.41-44.64-29.22l12.56-38.53c6.39-19.61-10.18-39.07-30.56-35.87l-40.03,6.28c-27.86,4.37-43.6-30.89-21.76-48.72l31.4-25.62c15.98-13.04,12.56-38.37-6.31-46.7l-37.07-16.36c-25.8-11.39-19.98-49.56,8.04-52.74l40.26-4.58c20.5-2.33,31.31-25.49,19.93-42.7l-22.34-33.81c-15.55-23.53,9.98-52.49,35.28-40.03l36.35,17.92c18.5,9.12,40.12-4.51,39.85-25.14l-.52-40.52c-.36-28.2,36.78-38.76,51.32-14.6l20.89,34.72c10.64,17.68,36.19,17.89,47.12.4l21.47-34.37c14.94-23.92,51.9-12.73,51.06,15.46l-1.2,40.5c-.61,20.62,20.77,34.62,39.43,25.81l36.64-17.3c25.5-12.04,50.54,17.35,34.6,40.61l-22.91,33.43c-11.66,17.02-1.24,40.35,19.21,43.03l40.18,5.25c27.96,3.66,33.14,41.92,7.15,52.87l-37.34,15.74c-19.01,8.01-22.86,33.27-7.1,46.58l30.96,26.14c21.55,18.19,5.21,53.18-22.57,48.34l-39.92-6.95c-20.32-3.54-37.22,15.63-31.16,35.35l11.91,38.73c8.29,26.95-24.37,47.56-45.12,28.47Z"/>
      <path class="cls-1" d="m362.97,382.03h-48.96c-9.07,0-15.58-3.41-19.52-10.24l-38.72-67.68c-1.82-2.88-3.84-4.99-6.08-6.32-2.24-1.33-5.44-2-9.6-2h-13.76v86.24h-54.08v-233.12h75.84c16.85,0,31.22,1.74,43.12,5.2,11.89,3.47,21.6,8.29,29.12,14.48,7.52,6.19,12.99,13.5,16.4,21.92,3.41,8.43,5.12,17.6,5.12,27.52,0,7.58-1.02,14.72-3.04,21.44-2.03,6.72-5.01,12.94-8.96,18.64-3.95,5.71-8.83,10.8-14.64,15.28-5.81,4.48-12.51,8.16-20.08,11.04,3.52,1.82,6.82,4.08,9.92,6.8,3.09,2.72,5.86,5.95,8.32,9.68l49.6,81.12Zm-114.88-123.52c7.36,0,13.62-.93,18.8-2.8,5.17-1.87,9.41-4.45,12.72-7.76s5.71-7.17,7.2-11.6c1.49-4.42,2.24-9.2,2.24-14.32,0-10.24-3.33-18.24-10-24-6.67-5.76-16.99-8.64-30.96-8.64h-21.76v69.12h21.76Z"/>
    </g>
  </g>
</svg>