<?xml version="1.0" encoding="UTF-8"?>
<svg id="Layer_2" data-name="Layer 2" xmlns="http://www.w3.org/2000/svg" viewBox="0 0 495.33 495">
  <defs>
    <style>
      .cls-1 {
        fill: #ffa900;
      }
    </style>
  </defs>
  <g id="Layer_1-2" data-name="Layer 1">
    <path class="cls-1" d="m423.65,404.1l-42.66-19.57c-14.15-6.49-29.68,5.83-26.58,21.09l9.35,46c4.01,19.75-21.4,31.37-33.71,15.42l-28.68-37.15c-9.51-12.32-28.99-8.63-33.34,6.32l-13.1,45.07c-5.62,19.35-33.53,17.83-37.02-2.02l-8.13-46.23c-2.7-15.33-21.66-21.12-32.46-9.9l-32.55,33.82c-13.97,14.52-37.97.21-31.84-18.99l14.28-44.71c4.74-14.83-9.37-28.77-24.14-23.85l-44.54,14.82c-19.12,6.36-33.72-17.46-19.37-31.61l33.43-32.95c11.09-10.93,5.07-29.82-10.29-32.33l-46.32-7.57c-19.89-3.25-21.74-31.13-2.46-36.99l44.91-13.64c14.9-4.53,18.35-24.05,5.91-33.41l-37.5-28.23c-16.1-12.12-4.78-37.67,15.01-33.9l46.11,8.79c15.29,2.92,27.43-12.77,20.77-26.84l-20.08-42.42c-8.62-18.21,13.27-35.58,29.04-23.04l36.74,29.21c12.19,9.69,30.22,1.44,30.86-14.11l1.93-46.9c.83-20.13,28.29-25.34,36.42-6.9l18.96,42.94c6.29,14.24,26.09,15.32,33.88,1.84l23.51-40.63c10.09-17.44,36.82-9.29,35.46,10.82l-3.17,46.83c-1.05,15.53,15.98,25.69,29.14,17.38l39.69-25.05c17.04-10.75,36.92,8.89,26.37,26.06l-24.57,39.99c-8.15,13.27,2.21,30.17,17.73,28.93l46.79-3.73c20.09-1.6,28.56,25.03,11.24,35.33l-40.34,24c-13.38,7.96-12.06,27.74,2.25,33.86l43.16,18.44c18.53,7.92,13.66,35.43-6.46,36.51l-46.87,2.5c-15.55.83-23.57,18.96-13.74,31.03l29.65,36.39c12.73,15.62-4.37,37.72-22.69,29.32Z"/>
  </g>
</svg>